<mxfile host="app.diagrams.net" modified="2021-04-05T23:20:11.456Z" agent="5.0 (Macintosh; Intel Mac OS X 10_15_5) AppleWebKit/537.36 (KHTML, like Gecko) Chrome/88.0.4324.192 Safari/537.36" etag="_ndv7aGbY-Hc_LeMfx6j" version="14.2.9" type="github">
  <diagram id="LHnerHRtC5ZAhIGBSkRl" name="Page-1">
    <mxGraphModel dx="1855" dy="1169" grid="1" gridSize="10" guides="1" tooltips="1" connect="1" arrows="1" fold="1" page="1" pageScale="1" pageWidth="827" pageHeight="1169" math="0" shadow="0">
      <root>
        <mxCell id="0" />
        <mxCell id="1" parent="0" />
        <mxCell id="88uvcsHo3phoEBJNWdKq-37" value="AWS Cloud" style="points=[[0,0],[0.25,0],[0.5,0],[0.75,0],[1,0],[1,0.25],[1,0.5],[1,0.75],[1,1],[0.75,1],[0.5,1],[0.25,1],[0,1],[0,0.75],[0,0.5],[0,0.25]];outlineConnect=0;gradientColor=none;html=1;whiteSpace=wrap;fontSize=12;fontStyle=0;shape=mxgraph.aws4.group;grIcon=mxgraph.aws4.group_aws_cloud_alt;strokeColor=#232F3E;fillColor=none;verticalAlign=top;align=left;spacingLeft=30;fontColor=#232F3E;dashed=0;" vertex="1" parent="1">
          <mxGeometry x="80" y="280" width="320" height="560" as="geometry" />
        </mxCell>
        <mxCell id="88uvcsHo3phoEBJNWdKq-12" value="" style="whiteSpace=wrap;html=1;aspect=fixed;" vertex="1" parent="1">
          <mxGeometry x="640" y="80" width="80" height="80" as="geometry" />
        </mxCell>
        <mxCell id="88uvcsHo3phoEBJNWdKq-11" value="" style="whiteSpace=wrap;html=1;aspect=fixed;" vertex="1" parent="1">
          <mxGeometry x="199" y="80" width="80" height="80" as="geometry" />
        </mxCell>
        <mxCell id="88uvcsHo3phoEBJNWdKq-1" value="" style="points=[[0,0,0],[0.25,0,0],[0.5,0,0],[0.75,0,0],[1,0,0],[0,1,0],[0.25,1,0],[0.5,1,0],[0.75,1,0],[1,1,0],[0,0.25,0],[0,0.5,0],[0,0.75,0],[1,0.25,0],[1,0.5,0],[1,0.75,0]];outlineConnect=0;fontColor=#232F3E;gradientColor=#60A337;gradientDirection=north;fillColor=#277116;strokeColor=#ffffff;dashed=0;verticalLabelPosition=bottom;verticalAlign=top;align=center;html=1;fontSize=12;fontStyle=0;aspect=fixed;shape=mxgraph.aws4.resourceIcon;resIcon=mxgraph.aws4.s3;" vertex="1" parent="1">
          <mxGeometry x="199" y="680" width="80" height="80" as="geometry" />
        </mxCell>
        <mxCell id="88uvcsHo3phoEBJNWdKq-2" value="" style="points=[[0,0,0],[0.25,0,0],[0.5,0,0],[0.75,0,0],[1,0,0],[0,1,0],[0.25,1,0],[0.5,1,0],[0.75,1,0],[1,1,0],[0,0.25,0],[0,0.5,0],[0,0.75,0],[1,0.25,0],[1,0.5,0],[1,0.75,0]];outlineConnect=0;fontColor=#232F3E;gradientColor=#945DF2;gradientDirection=north;fillColor=#5A30B5;strokeColor=#ffffff;dashed=0;verticalLabelPosition=bottom;verticalAlign=top;align=center;html=1;fontSize=12;fontStyle=0;aspect=fixed;shape=mxgraph.aws4.resourceIcon;resIcon=mxgraph.aws4.cloudfront;" vertex="1" parent="1">
          <mxGeometry x="198" y="518" width="82" height="82" as="geometry" />
        </mxCell>
        <mxCell id="88uvcsHo3phoEBJNWdKq-3" value="" style="points=[[0,0,0],[0.25,0,0],[0.5,0,0],[0.75,0,0],[1,0,0],[0,1,0],[0.25,1,0],[0.5,1,0],[0.75,1,0],[1,1,0],[0,0.25,0],[0,0.5,0],[0,0.75,0],[1,0.25,0],[1,0.5,0],[1,0.75,0]];outlineConnect=0;fontColor=#232F3E;gradientColor=#945DF2;gradientDirection=north;fillColor=#5A30B5;strokeColor=#ffffff;dashed=0;verticalLabelPosition=bottom;verticalAlign=top;align=center;html=1;fontSize=12;fontStyle=0;aspect=fixed;shape=mxgraph.aws4.resourceIcon;resIcon=mxgraph.aws4.route_53;" vertex="1" parent="1">
          <mxGeometry x="198" y="360" width="82" height="82" as="geometry" />
        </mxCell>
        <mxCell id="88uvcsHo3phoEBJNWdKq-4" value="" style="shape=image;html=1;verticalAlign=top;verticalLabelPosition=bottom;labelBackgroundColor=#ffffff;imageAspect=0;aspect=fixed;image=https://cdn3.iconfinder.com/data/icons/inficons/128/github.png" vertex="1" parent="1">
          <mxGeometry x="640" y="680" width="80" height="80" as="geometry" />
        </mxCell>
        <mxCell id="88uvcsHo3phoEBJNWdKq-5" value="" style="shadow=0;dashed=0;html=1;strokeColor=none;fillColor=#4495D1;labelPosition=center;verticalLabelPosition=bottom;verticalAlign=top;align=center;outlineConnect=0;shape=mxgraph.veeam.portal_admin;" vertex="1" parent="1">
          <mxGeometry x="650" y="90" width="60" height="60" as="geometry" />
        </mxCell>
        <mxCell id="88uvcsHo3phoEBJNWdKq-6" value="" style="shadow=0;dashed=0;html=1;strokeColor=none;fillColor=#4495D1;labelPosition=center;verticalLabelPosition=bottom;verticalAlign=top;align=center;outlineConnect=0;shape=mxgraph.veeam.2d.user;" vertex="1" parent="1">
          <mxGeometry x="219" y="90" width="36" height="60" as="geometry" />
        </mxCell>
        <mxCell id="88uvcsHo3phoEBJNWdKq-7" value="" style="endArrow=classic;html=1;exitX=0;exitY=0.5;exitDx=0;exitDy=0;" edge="1" parent="1" source="88uvcsHo3phoEBJNWdKq-4" target="88uvcsHo3phoEBJNWdKq-1">
          <mxGeometry width="50" height="50" relative="1" as="geometry">
            <mxPoint x="390" y="670" as="sourcePoint" />
            <mxPoint x="440" y="720" as="targetPoint" />
          </mxGeometry>
        </mxCell>
        <mxCell id="88uvcsHo3phoEBJNWdKq-8" value="" style="endArrow=classic;html=1;exitX=0.25;exitY=0;exitDx=0;exitDy=0;entryX=0.25;entryY=1;entryDx=0;entryDy=0;exitPerimeter=0;entryPerimeter=0;" edge="1" parent="1" source="88uvcsHo3phoEBJNWdKq-1" target="88uvcsHo3phoEBJNWdKq-2">
          <mxGeometry width="50" height="50" relative="1" as="geometry">
            <mxPoint x="489" y="730" as="sourcePoint" />
            <mxPoint x="219" y="620" as="targetPoint" />
          </mxGeometry>
        </mxCell>
        <mxCell id="88uvcsHo3phoEBJNWdKq-9" value="" style="endArrow=classic;html=1;exitX=0.75;exitY=1;exitDx=0;exitDy=0;entryX=0.75;entryY=0;entryDx=0;entryDy=0;entryPerimeter=0;exitPerimeter=0;" edge="1" parent="1" source="88uvcsHo3phoEBJNWdKq-2" target="88uvcsHo3phoEBJNWdKq-1">
          <mxGeometry width="50" height="50" relative="1" as="geometry">
            <mxPoint x="259" y="620" as="sourcePoint" />
            <mxPoint x="228.5" y="608" as="targetPoint" />
          </mxGeometry>
        </mxCell>
        <mxCell id="88uvcsHo3phoEBJNWdKq-10" value="" style="endArrow=classic;html=1;exitX=0.5;exitY=1;exitDx=0;exitDy=0;entryX=0.5;entryY=0;entryDx=0;entryDy=0;entryPerimeter=0;" edge="1" parent="1" source="88uvcsHo3phoEBJNWdKq-11" target="88uvcsHo3phoEBJNWdKq-3">
          <mxGeometry width="50" height="50" relative="1" as="geometry">
            <mxPoint x="199" y="200" as="sourcePoint" />
            <mxPoint x="239" y="240" as="targetPoint" />
          </mxGeometry>
        </mxCell>
        <mxCell id="88uvcsHo3phoEBJNWdKq-13" value="更新" style="endArrow=classic;html=1;exitX=0.5;exitY=1;exitDx=0;exitDy=0;" edge="1" parent="1" source="88uvcsHo3phoEBJNWdKq-12" target="88uvcsHo3phoEBJNWdKq-4">
          <mxGeometry width="50" height="50" relative="1" as="geometry">
            <mxPoint x="408" y="170" as="sourcePoint" />
            <mxPoint x="409" y="330" as="targetPoint" />
          </mxGeometry>
        </mxCell>
        <mxCell id="88uvcsHo3phoEBJNWdKq-24" value="" style="endArrow=classic;html=1;exitX=0.75;exitY=1;exitDx=0;exitDy=0;entryX=0.75;entryY=0;entryDx=0;entryDy=0;entryPerimeter=0;exitPerimeter=0;" edge="1" parent="1" source="88uvcsHo3phoEBJNWdKq-3" target="88uvcsHo3phoEBJNWdKq-2">
          <mxGeometry width="50" height="50" relative="1" as="geometry">
            <mxPoint x="258.5" y="462" as="sourcePoint" />
            <mxPoint x="269" y="690" as="targetPoint" />
          </mxGeometry>
        </mxCell>
        <mxCell id="88uvcsHo3phoEBJNWdKq-25" value="" style="endArrow=classic;html=1;exitX=0.25;exitY=0;exitDx=0;exitDy=0;entryX=0.25;entryY=1;entryDx=0;entryDy=0;exitPerimeter=0;entryPerimeter=0;" edge="1" parent="1" source="88uvcsHo3phoEBJNWdKq-2" target="88uvcsHo3phoEBJNWdKq-3">
          <mxGeometry width="50" height="50" relative="1" as="geometry">
            <mxPoint x="229" y="690" as="sourcePoint" />
            <mxPoint x="217.49999999999977" y="462" as="targetPoint" />
          </mxGeometry>
        </mxCell>
        <mxCell id="88uvcsHo3phoEBJNWdKq-26" value="ユーザ" style="text;html=1;align=center;verticalAlign=middle;resizable=0;points=[];autosize=1;fillColor=#ffffff;" vertex="1" parent="1">
          <mxGeometry x="214" y="170" width="50" height="20" as="geometry" />
        </mxCell>
        <mxCell id="88uvcsHo3phoEBJNWdKq-28" value="管理者" style="text;html=1;align=center;verticalAlign=middle;resizable=0;points=[];autosize=1;fillColor=#ffffff;" vertex="1" parent="1">
          <mxGeometry x="655" y="170" width="50" height="20" as="geometry" />
        </mxCell>
        <mxCell id="88uvcsHo3phoEBJNWdKq-32" value="Route 53" style="text;html=1;align=center;verticalAlign=middle;resizable=0;points=[];autosize=1;fillColor=#ffffff;" vertex="1" parent="1">
          <mxGeometry x="209" y="450" width="60" height="20" as="geometry" />
        </mxCell>
        <mxCell id="88uvcsHo3phoEBJNWdKq-33" value="CloudFront" style="text;html=1;align=center;verticalAlign=middle;resizable=0;points=[];autosize=1;fillColor=#ffffff;" vertex="1" parent="1">
          <mxGeometry x="204" y="610" width="70" height="20" as="geometry" />
        </mxCell>
        <mxCell id="88uvcsHo3phoEBJNWdKq-34" value="s3" style="text;html=1;align=center;verticalAlign=middle;resizable=0;points=[];autosize=1;fillColor=#ffffff;" vertex="1" parent="1">
          <mxGeometry x="224" y="770" width="30" height="20" as="geometry" />
        </mxCell>
        <mxCell id="88uvcsHo3phoEBJNWdKq-35" value="GitHub" style="text;html=1;align=center;verticalAlign=middle;resizable=0;points=[];autosize=1;fillColor=#ffffff;" vertex="1" parent="1">
          <mxGeometry x="655" y="770" width="50" height="20" as="geometry" />
        </mxCell>
        <mxCell id="88uvcsHo3phoEBJNWdKq-36" value="GitHub Action経由で反映" style="text;html=1;align=center;verticalAlign=middle;resizable=0;points=[];autosize=1;fillColor=#ffffff;" vertex="1" parent="1">
          <mxGeometry x="410" y="725" width="150" height="20" as="geometry" />
        </mxCell>
        <mxCell id="88uvcsHo3phoEBJNWdKq-39" value="独自ドメインへアクセス" style="text;html=1;align=center;verticalAlign=middle;resizable=0;points=[];autosize=1;fillColor=#ffffff;" vertex="1" parent="1">
          <mxGeometry x="165" y="220" width="150" height="20" as="geometry" />
        </mxCell>
      </root>
    </mxGraphModel>
  </diagram>
</mxfile>
